{
	"asset":{
		"generator":"Khronos glTF Blender I/O v4.0.44",
		"version":"2.0"
	},
	"scene":0,
	"scenes":[
		{
			"name":"Scene",
			"nodes":[
				0
			]
		}
	],
	"nodes":[
		{
			"mesh":0,
			"name":"Portrait_dAdele_Bloch_Bauer__de_Klimt-1526x1536",
			"translation":[
				-52.96565246582031,
				2.123725652694702,
				-6.29554557800293
			]
		}
	],
	"materials":[
		{
			"alphaMode":"BLEND",
			"doubleSided":true,
			"name":"Portrait_dAdele_Bloch_Bauer__de_Klimt-1526x1536",
			"pbrMetallicRoughness":{
				"baseColorTexture":{
					"index":0
				},
				"metallicFactor":0,
				"roughnessFactor":0.5
			}
		},
		{
			"doubleSided":true,
			"name":"gold",
			"normalTexture":{
				"index":1
			},
			"pbrMetallicRoughness":{
				"baseColorTexture":{
					"index":2
				},
				"metallicRoughnessTexture":{
					"index":3
				}
			}
		}
	],
	"meshes":[
		{
			"name":"Portrait_dAdele_Bloch_Bauer__de_Klimt-1526x1536",
			"primitives":[
				{
					"attributes":{
						"POSITION":0,
						"NORMAL":1,
						"TEXCOORD_0":2
					},
					"indices":3,
					"material":0
				},
				{
					"attributes":{
						"POSITION":4,
						"NORMAL":5,
						"TEXCOORD_0":6
					},
					"indices":7,
					"material":1
				}
			]
		}
	],
	"textures":[
		{
			"sampler":0,
			"source":0
		},
		{
			"sampler":1,
			"source":1
		},
		{
			"sampler":1,
			"source":2
		},
		{
			"sampler":1,
			"source":3
		}
	],
	"images":[
		{
			"mimeType":"image/png",
			"name":"Portrait_dAdele_Bloch_Bauer__de_Klimt-1526x1536",
			"uri":"textures_tableaux/Portrait_dAdele_Bloch_Bauer__de_Klimt-1526x1536.png"
		},
		{
			"mimeType":"image/jpeg",
			"name":"Metal007_2K-JPG_NormalGL",
			"uri":"textures_tableaux/Metal007_2K-JPG_NormalGL.jpg"
		},
		{
			"mimeType":"image/jpeg",
			"name":"Metal007_2K-JPG_Color",
			"uri":"textures_tableaux/Metal007_2K-JPG_Color.jpg"
		},
		{
			"mimeType":"image/png",
			"name":"Metal007_2K-JPG_Metalness-Metal007_2K-JPG_Roughness",
			"uri":"textures_tableaux/Metal007_2K-JPG_Metalness-Metal007_2K-JPG_Roughness.png"
		}
	],
	"accessors":[
		{
			"bufferView":0,
			"componentType":5126,
			"count":4,
			"max":[
				0.9474219083786011,
				0.9551365375518799,
				-0.0314364917576313
			],
			"min":[
				-0.9504166841506958,
				-0.9551359415054321,
				-0.0314364917576313
			],
			"type":"VEC3"
		},
		{
			"bufferView":1,
			"componentType":5126,
			"count":4,
			"type":"VEC3"
		},
		{
			"bufferView":2,
			"componentType":5126,
			"count":4,
			"type":"VEC2"
		},
		{
			"bufferView":3,
			"componentType":5123,
			"count":6,
			"type":"SCALAR"
		},
		{
			"bufferView":4,
			"componentType":5126,
			"count":222,
			"max":[
				1.0607565641403198,
				1.0622546672821045,
				0.042340707033872604
			],
			"min":[
				-1.0637513399124146,
				-1.0622546672821045,
				-0.11168818175792694
			],
			"type":"VEC3"
		},
		{
			"bufferView":5,
			"componentType":5126,
			"count":222,
			"type":"VEC3"
		},
		{
			"bufferView":6,
			"componentType":5126,
			"count":222,
			"type":"VEC2"
		},
		{
			"bufferView":7,
			"componentType":5123,
			"count":444,
			"type":"SCALAR"
		}
	],
	"bufferViews":[
		{
			"buffer":0,
			"byteLength":48,
			"byteOffset":0,
			"target":34962
		},
		{
			"buffer":0,
			"byteLength":48,
			"byteOffset":48,
			"target":34962
		},
		{
			"buffer":0,
			"byteLength":32,
			"byteOffset":96,
			"target":34962
		},
		{
			"buffer":0,
			"byteLength":12,
			"byteOffset":128,
			"target":34963
		},
		{
			"buffer":0,
			"byteLength":2664,
			"byteOffset":140,
			"target":34962
		},
		{
			"buffer":0,
			"byteLength":2664,
			"byteOffset":2804,
			"target":34962
		},
		{
			"buffer":0,
			"byteLength":1776,
			"byteOffset":5468,
			"target":34962
		},
		{
			"buffer":0,
			"byteLength":888,
			"byteOffset":7244,
			"target":34963
		}
	],
	"samplers":[
		{
			"magFilter":9729,
			"minFilter":9987,
			"wrapS":33071,
			"wrapT":33071
		},
		{
			"magFilter":9729,
			"minFilter":9987
		}
	],
	"buffers":[
		{
			"byteLength":8132,
			"uri":"adele_bloch.bin"
		}
	]
}
