{
	"asset":{
		"generator":"Khronos glTF Blender I/O v4.0.44",
		"version":"2.0"
	},
	"scene":0,
	"scenes":[
		{
			"name":"Scene",
			"nodes":[
				0
			]
		}
	],
	"nodes":[
		{
			"mesh":0,
			"name":"andy-warhol-marilyn-monroe",
			"translation":[
				42.76472473144531,
				2.2605340480804443,
				17.53299903869629
			]
		}
	],
	"materials":[
		{
			"doubleSided":true,
			"name":"gold",
			"normalTexture":{
				"index":0
			},
			"pbrMetallicRoughness":{
				"baseColorTexture":{
					"index":1
				},
				"metallicRoughnessTexture":{
					"index":2
				}
			}
		},
		{
			"alphaMode":"BLEND",
			"doubleSided":true,
			"name":"andy-warhol-marilyn-monroe",
			"pbrMetallicRoughness":{
				"baseColorTexture":{
					"index":3
				},
				"metallicFactor":0,
				"roughnessFactor":0.5
			}
		}
	],
	"meshes":[
		{
			"name":"Cube.005",
			"primitives":[
				{
					"attributes":{
						"POSITION":0,
						"NORMAL":1,
						"TEXCOORD_0":2
					},
					"indices":3,
					"material":0
				},
				{
					"attributes":{
						"POSITION":4,
						"NORMAL":5,
						"TEXCOORD_0":6
					},
					"indices":7,
					"material":1
				}
			]
		}
	],
	"textures":[
		{
			"sampler":0,
			"source":0
		},
		{
			"sampler":0,
			"source":1
		},
		{
			"sampler":0,
			"source":2
		},
		{
			"sampler":1,
			"source":3
		}
	],
	"images":[
		{
			"mimeType":"image/jpeg",
			"name":"Metal007_2K-JPG_NormalGL",
			"uri":"textures_tableaux/Metal007_2K-JPG_NormalGL.jpg"
		},
		{
			"mimeType":"image/jpeg",
			"name":"Metal007_2K-JPG_Color",
			"uri":"textures_tableaux/Metal007_2K-JPG_Color.jpg"
		},
		{
			"mimeType":"image/png",
			"name":"Metal007_2K-JPG_Metalness-Metal007_2K-JPG_Roughness",
			"uri":"textures_tableaux/Metal007_2K-JPG_Metalness-Metal007_2K-JPG_Roughness.png"
		},
		{
			"mimeType":"image/png",
			"name":"andy-warhol-marilyn-monroe",
			"uri":"textures_tableaux/andy-warhol-marilyn-monroe.png"
		}
	],
	"accessors":[
		{
			"bufferView":0,
			"componentType":5126,
			"count":280,
			"max":[
				0.14130382239818573,
				1.0788600444793701,
				1.0070971250534058
			],
			"min":[
				-0.05356616899371147,
				-1.0787895917892456,
				-1.011165738105774
			],
			"type":"VEC3"
		},
		{
			"bufferView":1,
			"componentType":5126,
			"count":280,
			"type":"VEC3"
		},
		{
			"bufferView":2,
			"componentType":5126,
			"count":280,
			"type":"VEC2"
		},
		{
			"bufferView":3,
			"componentType":5123,
			"count":444,
			"type":"SCALAR"
		},
		{
			"bufferView":4,
			"componentType":5126,
			"count":4,
			"max":[
				0.03977184370160103,
				0.8904125690460205,
				0.8844088315963745
			],
			"min":[
				0.03977184370160103,
				-0.8917524814605713,
				-0.882848858833313
			],
			"type":"VEC3"
		},
		{
			"bufferView":5,
			"componentType":5126,
			"count":4,
			"type":"VEC3"
		},
		{
			"bufferView":6,
			"componentType":5126,
			"count":4,
			"type":"VEC2"
		},
		{
			"bufferView":7,
			"componentType":5123,
			"count":6,
			"type":"SCALAR"
		}
	],
	"bufferViews":[
		{
			"buffer":0,
			"byteLength":3360,
			"byteOffset":0,
			"target":34962
		},
		{
			"buffer":0,
			"byteLength":3360,
			"byteOffset":3360,
			"target":34962
		},
		{
			"buffer":0,
			"byteLength":2240,
			"byteOffset":6720,
			"target":34962
		},
		{
			"buffer":0,
			"byteLength":888,
			"byteOffset":8960,
			"target":34963
		},
		{
			"buffer":0,
			"byteLength":48,
			"byteOffset":9848,
			"target":34962
		},
		{
			"buffer":0,
			"byteLength":48,
			"byteOffset":9896,
			"target":34962
		},
		{
			"buffer":0,
			"byteLength":32,
			"byteOffset":9944,
			"target":34962
		},
		{
			"buffer":0,
			"byteLength":12,
			"byteOffset":9976,
			"target":34963
		}
	],
	"samplers":[
		{
			"magFilter":9729,
			"minFilter":9987
		},
		{
			"magFilter":9729,
			"minFilter":9987,
			"wrapS":33071,
			"wrapT":33071
		}
	],
	"buffers":[
		{
			"byteLength":9988,
			"uri":"andy_warol.bin"
		}
	]
}
