{
	"asset":{
		"generator":"Khronos glTF Blender I/O v4.0.44",
		"version":"2.0"
	},
	"scene":0,
	"scenes":[
		{
			"name":"Scene",
			"nodes":[
				0
			]
		}
	],
	"nodes":[
		{
			"mesh":0,
			"name":"fleurs",
			"translation":[
				-32.96086502075195,
				2.3640847206115723,
				-6.244289398193359
			]
		}
	],
	"materials":[
		{
			"alphaMode":"BLEND",
			"doubleSided":true,
			"name":"fleurs",
			"pbrMetallicRoughness":{
				"baseColorTexture":{
					"index":0
				},
				"metallicFactor":0,
				"roughnessFactor":0.5
			}
		},
		{
			"doubleSided":true,
			"name":"gold",
			"normalTexture":{
				"index":1
			},
			"pbrMetallicRoughness":{
				"baseColorTexture":{
					"index":2
				},
				"metallicRoughnessTexture":{
					"index":3
				}
			}
		}
	],
	"meshes":[
		{
			"name":"202008MSAFS-336-32712-12-Van-Gogh-les-tableaux-les-plus-connus_",
			"primitives":[
				{
					"attributes":{
						"POSITION":0,
						"NORMAL":1,
						"TEXCOORD_0":2
					},
					"indices":3,
					"material":0
				},
				{
					"attributes":{
						"POSITION":4,
						"NORMAL":5,
						"TEXCOORD_0":6
					},
					"indices":7,
					"material":1
				}
			]
		}
	],
	"textures":[
		{
			"sampler":0,
			"source":0
		},
		{
			"sampler":1,
			"source":1
		},
		{
			"sampler":1,
			"source":2
		},
		{
			"sampler":1,
			"source":3
		}
	],
	"images":[
		{
			"mimeType":"image/png",
			"name":"202008MSAFS-336-32712-12-Van-Gogh-les-tableaux-les-plus-connus_Les-tournesols-1228x1536",
			"uri":"textures_tableaux/202008MSAFS-336-32712-12-Van-Gogh-les-tableaux-les-plus-connus_Les-tournesols-1228x1536.png"
		},
		{
			"mimeType":"image/jpeg",
			"name":"Metal007_2K-JPG_NormalGL",
			"uri":"textures_tableaux/Metal007_2K-JPG_NormalGL.jpg"
		},
		{
			"mimeType":"image/jpeg",
			"name":"Metal007_2K-JPG_Color",
			"uri":"textures_tableaux/Metal007_2K-JPG_Color.jpg"
		},
		{
			"mimeType":"image/png",
			"name":"Metal007_2K-JPG_Metalness-Metal007_2K-JPG_Roughness",
			"uri":"textures_tableaux/Metal007_2K-JPG_Metalness-Metal007_2K-JPG_Roughness.png"
		}
	],
	"accessors":[
		{
			"bufferView":0,
			"componentType":5126,
			"count":4,
			"max":[
				0.827480137348175,
				1.0248570442199707,
				-0.045862697064876556
			],
			"min":[
				-0.8124582171440125,
				-1.026402473449707,
				-0.045862697064876556
			],
			"type":"VEC3"
		},
		{
			"bufferView":1,
			"componentType":5126,
			"count":4,
			"type":"VEC3"
		},
		{
			"bufferView":2,
			"componentType":5126,
			"count":4,
			"type":"VEC2"
		},
		{
			"bufferView":3,
			"componentType":5123,
			"count":6,
			"type":"SCALAR"
		},
		{
			"bufferView":4,
			"componentType":5126,
			"count":280,
			"max":[
				0.9799554944038391,
				1.2231898307800293,
				0.06177089363336563
			],
			"min":[
				-0.9853441119194031,
				-1.2231084108352661,
				-0.16294196248054504
			],
			"type":"VEC3"
		},
		{
			"bufferView":5,
			"componentType":5126,
			"count":280,
			"type":"VEC3"
		},
		{
			"bufferView":6,
			"componentType":5126,
			"count":280,
			"type":"VEC2"
		},
		{
			"bufferView":7,
			"componentType":5123,
			"count":444,
			"type":"SCALAR"
		}
	],
	"bufferViews":[
		{
			"buffer":0,
			"byteLength":48,
			"byteOffset":0,
			"target":34962
		},
		{
			"buffer":0,
			"byteLength":48,
			"byteOffset":48,
			"target":34962
		},
		{
			"buffer":0,
			"byteLength":32,
			"byteOffset":96,
			"target":34962
		},
		{
			"buffer":0,
			"byteLength":12,
			"byteOffset":128,
			"target":34963
		},
		{
			"buffer":0,
			"byteLength":3360,
			"byteOffset":140,
			"target":34962
		},
		{
			"buffer":0,
			"byteLength":3360,
			"byteOffset":3500,
			"target":34962
		},
		{
			"buffer":0,
			"byteLength":2240,
			"byteOffset":6860,
			"target":34962
		},
		{
			"buffer":0,
			"byteLength":888,
			"byteOffset":9100,
			"target":34963
		}
	],
	"samplers":[
		{
			"magFilter":9729,
			"minFilter":9987,
			"wrapS":33071,
			"wrapT":33071
		},
		{
			"magFilter":9729,
			"minFilter":9987
		}
	],
	"buffers":[
		{
			"byteLength":9988,
			"uri":"fleurs.bin"
		}
	]
}
