{
	"asset":{
		"generator":"Khronos glTF Blender I/O v4.0.44",
		"version":"2.0"
	},
	"scene":0,
	"scenes":[
		{
			"name":"Scene",
			"nodes":[
				0
			]
		}
	],
	"nodes":[
		{
			"mesh":0,
			"name":"la-laitiere-peinte-en-1647-l-un-des-36-tableaux-connus-de-verme",
			"translation":[
				-2.0412356853485107,
				2.2161245346069336,
				15.258817672729492
			]
		}
	],
	"materials":[
		{
			"alphaMode":"BLEND",
			"doubleSided":true,
			"name":"la-laitiere-peinte-en-1647-l-un-des-36-tableaux-connus-de-verme",
			"pbrMetallicRoughness":{
				"baseColorTexture":{
					"index":0
				},
				"metallicFactor":0,
				"roughnessFactor":0.5
			}
		},
		{
			"doubleSided":true,
			"name":"gold",
			"normalTexture":{
				"index":1
			},
			"pbrMetallicRoughness":{
				"baseColorTexture":{
					"index":2
				},
				"metallicRoughnessTexture":{
					"index":3
				}
			}
		}
	],
	"meshes":[
		{
			"name":"la-laitiere-peinte-en-1647-l-un-des-36-tableaux-connus-de-verme",
			"primitives":[
				{
					"attributes":{
						"POSITION":0,
						"NORMAL":1,
						"TEXCOORD_0":2
					},
					"indices":3,
					"material":0
				},
				{
					"attributes":{
						"POSITION":4,
						"NORMAL":5,
						"TEXCOORD_0":6
					},
					"indices":7,
					"material":1
				}
			]
		}
	],
	"textures":[
		{
			"sampler":0,
			"source":0
		},
		{
			"sampler":1,
			"source":1
		},
		{
			"sampler":1,
			"source":2
		},
		{
			"sampler":1,
			"source":3
		}
	],
	"images":[
		{
			"mimeType":"image/png",
			"name":"la-laitiere-peinte-en-1647-l-un-des-36-tableaux-connus-de-vermeer-originaire-de-delft-photo-dr-1487709533",
			"uri":"textures_tableaux/la-laitiere-peinte-en-1647-l-un-des-36-tableaux-connus-de-vermeer-originaire-de-delft-photo-dr-1487709533.png"
		},
		{
			"mimeType":"image/jpeg",
			"name":"Metal007_2K-JPG_NormalGL",
			"uri":"textures_tableaux/Metal007_2K-JPG_NormalGL.jpg"
		},
		{
			"mimeType":"image/jpeg",
			"name":"Metal007_2K-JPG_Color",
			"uri":"textures_tableaux/Metal007_2K-JPG_Color.jpg"
		},
		{
			"mimeType":"image/png",
			"name":"Metal007_2K-JPG_Metalness-Metal007_2K-JPG_Roughness",
			"uri":"textures_tableaux/Metal007_2K-JPG_Metalness-Metal007_2K-JPG_Roughness.png"
		}
	],
	"accessors":[
		{
			"bufferView":0,
			"componentType":5126,
			"count":4,
			"max":[
				0.9449166655540466,
				0.9165832996368408,
				0.031436942517757416
			],
			"min":[
				-0.9419233202934265,
				-0.9165830612182617,
				0.03143598884344101
			],
			"type":"VEC3"
		},
		{
			"bufferView":1,
			"componentType":5126,
			"count":4,
			"type":"VEC3"
		},
		{
			"bufferView":2,
			"componentType":5126,
			"count":4,
			"type":"VEC2"
		},
		{
			"bufferView":3,
			"componentType":5123,
			"count":6,
			"type":"SCALAR"
		},
		{
			"bufferView":4,
			"componentType":5126,
			"count":222,
			"max":[
				1.0637519359588623,
				1.0622549057006836,
				0.11168863624334335
			],
			"min":[
				-1.0607578754425049,
				-1.0622549057006836,
				-0.0423412099480629
			],
			"type":"VEC3"
		},
		{
			"bufferView":5,
			"componentType":5126,
			"count":222,
			"type":"VEC3"
		},
		{
			"bufferView":6,
			"componentType":5126,
			"count":222,
			"type":"VEC2"
		},
		{
			"bufferView":7,
			"componentType":5123,
			"count":444,
			"type":"SCALAR"
		}
	],
	"bufferViews":[
		{
			"buffer":0,
			"byteLength":48,
			"byteOffset":0,
			"target":34962
		},
		{
			"buffer":0,
			"byteLength":48,
			"byteOffset":48,
			"target":34962
		},
		{
			"buffer":0,
			"byteLength":32,
			"byteOffset":96,
			"target":34962
		},
		{
			"buffer":0,
			"byteLength":12,
			"byteOffset":128,
			"target":34963
		},
		{
			"buffer":0,
			"byteLength":2664,
			"byteOffset":140,
			"target":34962
		},
		{
			"buffer":0,
			"byteLength":2664,
			"byteOffset":2804,
			"target":34962
		},
		{
			"buffer":0,
			"byteLength":1776,
			"byteOffset":5468,
			"target":34962
		},
		{
			"buffer":0,
			"byteLength":888,
			"byteOffset":7244,
			"target":34963
		}
	],
	"samplers":[
		{
			"magFilter":9729,
			"minFilter":9987,
			"wrapS":33071,
			"wrapT":33071
		},
		{
			"magFilter":9729,
			"minFilter":9987
		}
	],
	"buffers":[
		{
			"byteLength":8132,
			"uri":"la_laitiere.bin"
		}
	]
}
