{
	"asset":{
		"generator":"Khronos glTF Blender I/O v4.0.44",
		"version":"2.0"
	},
	"extensionsUsed":[
		"KHR_materials_specular",
		"KHR_materials_ior"
	],
	"scene":0,
	"scenes":[
		{
			"name":"Scene",
			"nodes":[
				0
			]
		}
	],
	"nodes":[
		{
			"mesh":0,
			"name":"SM_Buddha",
			"translation":[
				-9.545953750610352,
				1.464619517326355,
				21.88419532775879
			]
		}
	],
	"materials":[
		{
			"doubleSided":true,
			"extensions":{
				"KHR_materials_specular":{
					"specularColorFactor":[
						2.0,
						2.0,
						2.0
					]
				},
				"KHR_materials_ior":{
					"ior":1.4500000476837158
				}
			},
			"name":"Buddha",
			"normalTexture":{
				"index":0
			},
			"pbrMetallicRoughness":{
				"baseColorTexture":{
					"index":1
				},
				"metallicRoughnessTexture":{
					"index":2
				}
			}
		}
	],
	"meshes":[
		{
			"name":"SM_Buddha",
			"primitives":[
				{
					"attributes":{
						"POSITION":0,
						"NORMAL":1,
						"TEXCOORD_0":2
					},
					"indices":3,
					"material":0
				}
			]
		}
	],
	"textures":[
		{
			"sampler":0,
			"source":0
		},
		{
			"sampler":0,
			"source":1
		},
		{
			"sampler":0,
			"source":2
		}
	],
	"images":[
		{
			"mimeType":"image/png",
			"name":"Buddha_low_DefaultMaterial_Normal",
			"uri":"textures_statues/Buddha_low_DefaultMaterial_Normal.png"
		},
		{
			"mimeType":"image/png",
			"name":"Diffuse Texture",
			"uri":"textures_statues/Diffuse%20Texture.png"
		},
		{
			"mimeType":"image/png",
			"name":"Diffuse Texture-Diffuse Texture",
			"uri":"textures_statues/Diffuse%20Texture-Diffuse%20Texture.png"
		}
	],
	"accessors":[
		{
			"bufferView":0,
			"componentType":5126,
			"count":4433,
			"max":[
				1.116424560546875,
				2.495922565460205,
				0.9352264404296875
			],
			"min":[
				-1.1565361022949219,
				-1.4646192789077759,
				-0.7182521820068359
			],
			"type":"VEC3"
		},
		{
			"bufferView":1,
			"componentType":5126,
			"count":4433,
			"type":"VEC3"
		},
		{
			"bufferView":2,
			"componentType":5126,
			"count":4433,
			"type":"VEC2"
		},
		{
			"bufferView":3,
			"componentType":5123,
			"count":20670,
			"type":"SCALAR"
		}
	],
	"bufferViews":[
		{
			"buffer":0,
			"byteLength":53196,
			"byteOffset":0,
			"target":34962
		},
		{
			"buffer":0,
			"byteLength":53196,
			"byteOffset":53196,
			"target":34962
		},
		{
			"buffer":0,
			"byteLength":35464,
			"byteOffset":106392,
			"target":34962
		},
		{
			"buffer":0,
			"byteLength":41340,
			"byteOffset":141856,
			"target":34963
		}
	],
	"samplers":[
		{
			"magFilter":9729,
			"minFilter":9987
		}
	],
	"buffers":[
		{
			"byteLength":183196,
			"uri":"budhdha.bin"
		}
	]
}
