{
	"asset":{
		"generator":"Khronos glTF Blender I/O v4.0.44",
		"version":"2.0"
	},
	"scene":0,
	"scenes":[
		{
			"name":"Scene",
			"nodes":[
				0
			]
		}
	],
	"nodes":[
		{
			"mesh":0,
			"name":"Easter Island Head",
			"translation":[
				-30.417415618896484,
				3.0733418464660645,
				65.8354263305664
			]
		}
	],
	"materials":[
		{
			"doubleSided":true,
			"name":"easter_island",
			"normalTexture":{
				"index":0
			},
			"pbrMetallicRoughness":{
				"baseColorTexture":{
					"index":1
				},
				"metallicRoughnessTexture":{
					"index":2
				}
			}
		}
	],
	"meshes":[
		{
			"name":"Head Low Poly.002",
			"primitives":[
				{
					"attributes":{
						"POSITION":0,
						"NORMAL":1,
						"TEXCOORD_0":2
					},
					"indices":3,
					"material":0
				}
			]
		}
	],
	"textures":[
		{
			"sampler":0,
			"source":0
		},
		{
			"sampler":0,
			"source":1
		},
		{
			"sampler":0,
			"source":2
		}
	],
	"images":[
		{
			"mimeType":"image/png",
			"name":"Head_Normal_OpenGL",
			"uri":"textures_statues/Head_Normal_OpenGL.png"
		},
		{
			"mimeType":"image/png",
			"name":"Head_Base_Color",
			"uri":"textures_statues/Head_Base_Color.png"
		},
		{
			"mimeType":"image/png",
			"name":"Head_Metallic-Head_Roughness",
			"uri":"textures_statues/Head_Metallic-Head_Roughness.png"
		}
	],
	"accessors":[
		{
			"bufferView":0,
			"componentType":5126,
			"count":1205,
			"max":[
				1.4527603387832642,
				3.1069154739379883,
				1.3931347131729126
			],
			"min":[
				-1.4619640111923218,
				-3.073343276977539,
				-1.5183109045028687
			],
			"type":"VEC3"
		},
		{
			"bufferView":1,
			"componentType":5126,
			"count":1205,
			"type":"VEC3"
		},
		{
			"bufferView":2,
			"componentType":5126,
			"count":1205,
			"type":"VEC2"
		},
		{
			"bufferView":3,
			"componentType":5123,
			"count":6150,
			"type":"SCALAR"
		}
	],
	"bufferViews":[
		{
			"buffer":0,
			"byteLength":14460,
			"byteOffset":0,
			"target":34962
		},
		{
			"buffer":0,
			"byteLength":14460,
			"byteOffset":14460,
			"target":34962
		},
		{
			"buffer":0,
			"byteLength":9640,
			"byteOffset":28920,
			"target":34962
		},
		{
			"buffer":0,
			"byteLength":12300,
			"byteOffset":38560,
			"target":34963
		}
	],
	"samplers":[
		{
			"magFilter":9729,
			"minFilter":9987
		}
	],
	"buffers":[
		{
			"byteLength":50860,
			"uri":"easter_island.bin"
		}
	]
}
