{
	"asset":{
		"generator":"Khronos glTF Blender I/O v4.0.44",
		"version":"2.0"
	},
	"scene":0,
	"scenes":[
		{
			"name":"Scene",
			"nodes":[
				0
			]
		}
	],
	"nodes":[
		{
			"mesh":0,
			"name":"sphynx",
			"translation":[
				-22.724462509155273,
				1.590760588645935,
				44.69976043701172
			]
		}
	],
	"materials":[
		{
			"doubleSided":true,
			"emissiveFactor":[
				1,
				1,
				1
			],
			"emissiveTexture":{
				"index":0
			},
			"name":"sphynx",
			"normalTexture":{
				"index":1
			},
			"pbrMetallicRoughness":{
				"baseColorTexture":{
					"index":2
				},
				"metallicRoughnessTexture":{
					"index":3
				}
			}
		}
	],
	"meshes":[
		{
			"name":"Mesh",
			"primitives":[
				{
					"attributes":{
						"POSITION":0,
						"NORMAL":1,
						"TEXCOORD_0":2
					},
					"indices":3,
					"material":0
				}
			]
		}
	],
	"textures":[
		{
			"sampler":0,
			"source":0
		},
		{
			"sampler":0,
			"source":1
		},
		{
			"sampler":0,
			"source":2
		},
		{
			"sampler":0,
			"source":3
		}
	],
	"images":[
		{
			"mimeType":"image/png",
			"name":"Abolhole-PBR_VRayMtl1SG_Emissive",
			"uri":"textures_statues/Abolhole-PBR_VRayMtl1SG_Emissive.png"
		},
		{
			"mimeType":"image/png",
			"name":"Abolhole-PBR_VRayMtl1SG_Normal",
			"uri":"textures_statues/Abolhole-PBR_VRayMtl1SG_Normal.png"
		},
		{
			"mimeType":"image/png",
			"name":"Abolhole-PBR_VRayMtl1SG_BaseColor.png",
			"uri":"textures_statues/Abolhole-PBR_VRayMtl1SG_BaseColor_png.png"
		},
		{
			"mimeType":"image/png",
			"name":"Abolhole-PBR_VRayMtl1SG_Metallic-Abolhole-PBR_VRayMtl1SG_Roughness",
			"uri":"textures_statues/Abolhole-PBR_VRayMtl1SG_Metallic-Abolhole-PBR_VRayMtl1SG_Roughness.png"
		}
	],
	"accessors":[
		{
			"bufferView":0,
			"componentType":5126,
			"count":415608,
			"max":[
				2.402578830718994,
				3.0010931491851807,
				5.9077348709106445
			],
			"min":[
				-2.3324942588806152,
				-1.5499651432037354,
				-6.507391929626465
			],
			"type":"VEC3"
		},
		{
			"bufferView":1,
			"componentType":5126,
			"count":415608,
			"type":"VEC3"
		},
		{
			"bufferView":2,
			"componentType":5126,
			"count":415608,
			"type":"VEC2"
		},
		{
			"bufferView":3,
			"componentType":5125,
			"count":454344,
			"type":"SCALAR"
		}
	],
	"bufferViews":[
		{
			"buffer":0,
			"byteLength":4987296,
			"byteOffset":0,
			"target":34962
		},
		{
			"buffer":0,
			"byteLength":4987296,
			"byteOffset":4987296,
			"target":34962
		},
		{
			"buffer":0,
			"byteLength":3324864,
			"byteOffset":9974592,
			"target":34962
		},
		{
			"buffer":0,
			"byteLength":1817376,
			"byteOffset":13299456,
			"target":34963
		}
	],
	"samplers":[
		{
			"magFilter":9729,
			"minFilter":9987
		}
	],
	"buffers":[
		{
			"byteLength":15116832,
			"uri":"sphynx.bin"
		}
	]
}
