{
	"asset":{
		"generator":"Khronos glTF Blender I/O v4.0.44",
		"version":"2.0"
	},
	"scene":0,
	"scenes":[
		{
			"name":"Scene",
			"nodes":[
				0
			]
		}
	],
	"nodes":[
		{
			"mesh":0,
			"name":"venus de milo",
			"translation":[
				-39.93314743041992,
				3.196665048599243,
				60.74057388305664
			]
		}
	],
	"materials":[
		{
			"doubleSided":true,
			"name":"venus_milo",
			"pbrMetallicRoughness":{
				"baseColorTexture":{
					"index":0
				},
				"metallicFactor":0,
				"metallicRoughnessTexture":{
					"index":1
				}
			}
		}
	],
	"meshes":[
		{
			"name":"Statue",
			"primitives":[
				{
					"attributes":{
						"POSITION":0,
						"NORMAL":1,
						"TEXCOORD_0":2
					},
					"indices":3,
					"material":0
				}
			]
		}
	],
	"textures":[
		{
			"sampler":0,
			"source":0
		},
		{
			"sampler":0,
			"source":1
		}
	],
	"images":[
		{
			"mimeType":"image/png",
			"name":"Default OBJ_BaseColor.png",
			"uri":"textures_statues/Default%20OBJ_BaseColor_png.png"
		},
		{
			"mimeType":"image/png",
			"name":"Default OBJ_Roughness",
			"uri":"textures_statues/Default%20OBJ_Roughness.png"
		}
	],
	"accessors":[
		{
			"bufferView":0,
			"componentType":5126,
			"count":2232,
			"max":[
				1.0677412748336792,
				4.13327169418335,
				1.1544570922851562
			],
			"min":[
				-1.1311036348342896,
				-3.1966633796691895,
				-1.2618217468261719
			],
			"type":"VEC3"
		},
		{
			"bufferView":1,
			"componentType":5126,
			"count":2232,
			"type":"VEC3"
		},
		{
			"bufferView":2,
			"componentType":5126,
			"count":2232,
			"type":"VEC2"
		},
		{
			"bufferView":3,
			"componentType":5123,
			"count":11826,
			"type":"SCALAR"
		}
	],
	"bufferViews":[
		{
			"buffer":0,
			"byteLength":26784,
			"byteOffset":0,
			"target":34962
		},
		{
			"buffer":0,
			"byteLength":26784,
			"byteOffset":26784,
			"target":34962
		},
		{
			"buffer":0,
			"byteLength":17856,
			"byteOffset":53568,
			"target":34962
		},
		{
			"buffer":0,
			"byteLength":23652,
			"byteOffset":71424,
			"target":34963
		}
	],
	"samplers":[
		{
			"magFilter":9729,
			"minFilter":9987
		}
	],
	"buffers":[
		{
			"byteLength":95076,
			"uri":"venus.bin"
		}
	]
}
