{
	"asset":{
		"generator":"Khronos glTF Blender I/O v4.0.44",
		"version":"2.0"
	},
	"extensionsUsed":[
		"KHR_materials_specular",
		"KHR_materials_ior"
	],
	"scene":0,
	"scenes":[
		{
			"name":"Scene",
			"nodes":[
				0,
				1,
				2,
				3,
				4,
				5,
				6,
				7
			]
		}
	],
	"nodes":[
		{
			"mesh":0,
			"name":"Pillar.003",
			"scale":[
				0.8864966034889221,
				0.8864966034889221,
				0.8864966034889221
			],
			"translation":[
				-50.60891342163086,
				0.006632387638092041,
				10.481343269348145
			]
		},
		{
			"mesh":0,
			"name":"Pillar.001",
			"scale":[
				0.8864966034889221,
				0.8864966034889221,
				0.8864966034889221
			],
			"translation":[
				-19.77925682067871,
				0.006632387638092041,
				10.481343269348145
			]
		},
		{
			"mesh":0,
			"name":"Pillar.002",
			"scale":[
				0.8864966034889221,
				0.8864966034889221,
				0.8864966034889221
			],
			"translation":[
				-19.77925682067871,
				0.006632387638092041,
				-0.760624885559082
			]
		},
		{
			"mesh":0,
			"name":"Pillar.004",
			"scale":[
				0.8864966034889221,
				0.8864966034889221,
				0.8864966034889221
			],
			"translation":[
				-50.75275802612305,
				0.006632387638092041,
				-0.760624885559082
			]
		},
		{
			"mesh":0,
			"name":"Pillar.005",
			"scale":[
				0.8864966034889221,
				0.8864966034889221,
				0.8864966034889221
			],
			"translation":[
				0.5088729858398438,
				0.006632387638092041,
				24.786640167236328
			]
		},
		{
			"mesh":0,
			"name":"Pillar.006",
			"scale":[
				0.8864966034889221,
				0.8864966034889221,
				0.8864966034889221
			],
			"translation":[
				-14.739856719970703,
				0.006632387638092041,
				33.404624938964844
			]
		},
		{
			"mesh":1,
			"name":"Pillar.007",
			"scale":[
				0.8864966034889221,
				0.8864966034889221,
				0.8864966034889221
			],
			"translation":[
				-15.020984649658203,
				0.005879402160644531,
				56.87010192871094
			]
		},
		{
			"mesh":0,
			"name":"Pillar.008",
			"scale":[
				0.8864966034889221,
				0.8864966034889221,
				0.8864966034889221
			],
			"translation":[
				-44.224769592285156,
				0.006632387638092041,
				24.786640167236328
			]
		}
	],
	"materials":[
		{
			"doubleSided":true,
			"extensions":{
				"KHR_materials_specular":{
					"specularFactor":0.6132930517196655
				},
				"KHR_materials_ior":{
					"ior":1.4500000476837158
				}
			},
			"name":"Worn Stone",
			"normalTexture":{
				"index":0,
				"scale":0.5400000214576721
			},
			"pbrMetallicRoughness":{
				"baseColorTexture":{
					"index":1
				},
				"metallicFactor":0,
				"metallicRoughnessTexture":{
					"index":2
				}
			}
		}
	],
	"meshes":[
		{
			"name":"Cylinder.026",
			"primitives":[
				{
					"attributes":{
						"POSITION":0,
						"NORMAL":1,
						"TEXCOORD_0":2
					},
					"indices":3,
					"material":0
				}
			]
		},
		{
			"name":"Cylinder.001",
			"primitives":[
				{
					"attributes":{
						"POSITION":4,
						"NORMAL":5,
						"TEXCOORD_0":6
					},
					"indices":7,
					"material":0
				}
			]
		}
	],
	"textures":[
		{
			"sampler":0,
			"source":0
		},
		{
			"sampler":0,
			"source":1
		},
		{
			"sampler":0,
			"source":2
		}
	],
	"images":[
		{
			"mimeType":"image/jpeg",
			"name":"Rock028_4K_NormalDX",
			"uri":"texture_pillar/Rock028_4K_NormalDX.jpg"
		},
		{
			"mimeType":"image/jpeg",
			"name":"Rock028_4K_Color",
			"uri":"texture_pillar/Rock028_4K_Color.jpg"
		},
		{
			"mimeType":"image/png",
			"name":"Rock028_4K_Roughness",
			"uri":"texture_pillar/Rock028_4K_Roughness.png"
		}
	],
	"accessors":[
		{
			"bufferView":0,
			"componentType":5126,
			"count":201562,
			"max":[
				28.208940505981445,
				4.689297676086426,
				0.41683849692344666
			],
			"min":[
				-0.46244165301322937,
				-0.006632388103753328,
				-0.4142625033855438
			],
			"type":"VEC3"
		},
		{
			"bufferView":1,
			"componentType":5126,
			"count":201562,
			"type":"VEC3"
		},
		{
			"bufferView":2,
			"componentType":5126,
			"count":201562,
			"type":"VEC2"
		},
		{
			"bufferView":3,
			"componentType":5125,
			"count":900153,
			"type":"SCALAR"
		},
		{
			"bufferView":4,
			"componentType":5126,
			"count":134372,
			"max":[
				28.208940505981445,
				4.689297676086426,
				0.41683849692344666
			],
			"min":[
				13.410807609558105,
				-0.006632388103753328,
				-0.4142625033855438
			],
			"type":"VEC3"
		},
		{
			"bufferView":5,
			"componentType":5126,
			"count":134372,
			"type":"VEC3"
		},
		{
			"bufferView":6,
			"componentType":5126,
			"count":134372,
			"type":"VEC2"
		},
		{
			"bufferView":7,
			"componentType":5125,
			"count":600102,
			"type":"SCALAR"
		}
	],
	"bufferViews":[
		{
			"buffer":0,
			"byteLength":2418744,
			"byteOffset":0,
			"target":34962
		},
		{
			"buffer":0,
			"byteLength":2418744,
			"byteOffset":2418744,
			"target":34962
		},
		{
			"buffer":0,
			"byteLength":1612496,
			"byteOffset":4837488,
			"target":34962
		},
		{
			"buffer":0,
			"byteLength":3600612,
			"byteOffset":6449984,
			"target":34963
		},
		{
			"buffer":0,
			"byteLength":1612464,
			"byteOffset":10050596,
			"target":34962
		},
		{
			"buffer":0,
			"byteLength":1612464,
			"byteOffset":11663060,
			"target":34962
		},
		{
			"buffer":0,
			"byteLength":1074976,
			"byteOffset":13275524,
			"target":34962
		},
		{
			"buffer":0,
			"byteLength":2400408,
			"byteOffset":14350500,
			"target":34963
		}
	],
	"samplers":[
		{
			"magFilter":9729,
			"minFilter":9987
		}
	],
	"buffers":[
		{
			"byteLength":16750908,
			"uri":"pillar.bin"
		}
	]
}
