{
	"asset":{
		"generator":"Khronos glTF Blender I/O v4.0.44",
		"version":"2.0"
	},
	"extensionsUsed":[
		"KHR_materials_specular",
		"KHR_materials_ior"
	],
	"scene":0,
	"scenes":[
		{
			"name":"Scene",
			"nodes":[
				0
			]
		}
	],
	"nodes":[
		{
			"mesh":0,
			"name":"Plane.008",
			"translation":[
				-30.46881103515625,
				0.07357431948184967,
				4.527878761291504
			]
		}
	],
	"materials":[
		{
			"doubleSided":true,
			"extensions":{
				"KHR_materials_specular":{
					"specularFactor":0
				},
				"KHR_materials_ior":{
					"ior":1.4500000476837158
				}
			},
			"name":"Old Used Red Carpet",
			"normalTexture":{
				"index":0,
				"scale":2.5,
				"texCoord":1
			},
			"pbrMetallicRoughness":{
				"baseColorTexture":{
					"index":1,
					"texCoord":1
				},
				"metallicFactor":0,
				"metallicRoughnessTexture":{
					"index":2,
					"texCoord":1
				}
			}
		}
	],
	"meshes":[
		{
			"name":"Plane.009",
			"primitives":[
				{
					"attributes":{
						"POSITION":0,
						"NORMAL":1,
						"TEXCOORD_0":2,
						"TEXCOORD_1":3
					},
					"indices":4,
					"material":0
				}
			]
		}
	],
	"textures":[
		{
			"sampler":0,
			"source":0
		},
		{
			"sampler":0,
			"source":1
		},
		{
			"sampler":0,
			"source":2
		}
	],
	"images":[
		{
			"mimeType":"image/jpeg",
			"name":"carpet_07_normal",
			"uri":"texture_tapis/carpet_07_normal.jpg"
		},
		{
			"mimeType":"image/jpeg",
			"name":"carpet_07_color",
			"uri":"texture_tapis/carpet_07_color.jpg"
		},
		{
			"mimeType":"image/png",
			"name":"carpet_07_roughness",
			"uri":"texture_tapis/carpet_07_roughness.png"
		}
	],
	"accessors":[
		{
			"bufferView":0,
			"componentType":5126,
			"count":1272,
			"max":[
				64.3883285522461,
				0,
				57.61234664916992
			],
			"min":[
				-27.99197006225586,
				-0.23999999463558197,
				-2.5206377506256104
			],
			"type":"VEC3"
		},
		{
			"bufferView":1,
			"componentType":5126,
			"count":1272,
			"type":"VEC3"
		},
		{
			"bufferView":2,
			"componentType":5126,
			"count":1272,
			"type":"VEC2"
		},
		{
			"bufferView":3,
			"componentType":5126,
			"count":1272,
			"type":"VEC2"
		},
		{
			"bufferView":4,
			"componentType":5123,
			"count":4602,
			"type":"SCALAR"
		}
	],
	"bufferViews":[
		{
			"buffer":0,
			"byteLength":15264,
			"byteOffset":0,
			"target":34962
		},
		{
			"buffer":0,
			"byteLength":15264,
			"byteOffset":15264,
			"target":34962
		},
		{
			"buffer":0,
			"byteLength":10176,
			"byteOffset":30528,
			"target":34962
		},
		{
			"buffer":0,
			"byteLength":10176,
			"byteOffset":40704,
			"target":34962
		},
		{
			"buffer":0,
			"byteLength":9204,
			"byteOffset":50880,
			"target":34963
		}
	],
	"samplers":[
		{
			"magFilter":9729,
			"minFilter":9987
		}
	],
	"buffers":[
		{
			"byteLength":60084,
			"uri":"tapis.bin"
		}
	]
}
