{
	"asset":{
		"generator":"Khronos glTF Blender I/O v4.0.44",
		"version":"2.0"
	},
	"scene":0,
	"scenes":[
		{
			"name":"Scene",
			"nodes":[
				0,
				1,
				2,
				3,
				4,
				5,
				6,
				7,
				8,
				9
			]
		}
	],
	"nodes":[
		{
			"mesh":0,
			"name":"Plane.001",
			"translation":[
				-20.577777862548828,
				0,
				30.670326232910156
			]
		},
		{
			"mesh":1,
			"name":"Plane.003"
		},
		{
			"mesh":2,
			"name":"Plane.002"
		},
		{
			"mesh":3,
			"name":"Circle.004",
			"translation":[
				-13.608902931213379,
				1.1568306684494019,
				-5.225933074951172
			]
		},
		{
			"mesh":4,
			"name":"Circle.001",
			"translation":[
				-2.012018918991089,
				1.1580809354782104,
				-5.185803413391113
			]
		},
		{
			"mesh":5,
			"name":"Circle.003",
			"translation":[
				30.776325225830078,
				1.1568288803100586,
				8.84140682220459
			]
		},
		{
			"mesh":6,
			"name":"Circle.005",
			"translation":[
				41.71122360229492,
				1.1568306684494019,
				17.603900909423828
			]
		},
		{
			"mesh":7,
			"name":"Circle.006",
			"translation":[
				41.72224807739258,
				1.157713532447815,
				28.179767608642578
			]
		},
		{
			"mesh":8,
			"name":"Circle.008",
			"translation":[
				31.101734161376953,
				1.156830906867981,
				35.597225189208984
			]
		},
		{
			"mesh":9,
			"name":"Circle.010",
			"translation":[
				-1.8918286561965942,
				1.1568288803100586,
				14.20354175567627
			]
		}
	],
	"materials":[
		{
			"doubleSided":true,
			"name":"sol",
			"normalTexture":{
				"index":0
			},
			"pbrMetallicRoughness":{
				"baseColorTexture":{
					"index":1
				},
				"metallicFactor":0,
				"metallicRoughnessTexture":{
					"index":2
				}
			}
		},
		{
			"doubleSided":true,
			"name":"mur",
			"normalTexture":{
				"index":3
			},
			"pbrMetallicRoughness":{
				"baseColorTexture":{
					"index":4
				},
				"metallicFactor":0,
				"metallicRoughnessTexture":{
					"index":5
				}
			}
		},
		{
			"doubleSided":true,
			"name":"gold",
			"normalTexture":{
				"index":6
			},
			"pbrMetallicRoughness":{
				"baseColorTexture":{
					"index":7
				},
				"metallicRoughnessTexture":{
					"index":8
				}
			}
		},
		{
			"doubleSided":true,
			"name":"Material.006",
			"normalTexture":{
				"index":9
			},
			"pbrMetallicRoughness":{
				"baseColorTexture":{
					"index":10
				},
				"metallicFactor":0,
				"metallicRoughnessTexture":{
					"index":11
				}
			}
		}
	],
	"meshes":[
		{
			"name":"Plane.001",
			"primitives":[
				{
					"attributes":{
						"POSITION":0,
						"NORMAL":1,
						"TEXCOORD_0":2
					},
					"indices":3,
					"material":0
				}
			]
		},
		{
			"name":"Plane.006",
			"primitives":[
				{
					"attributes":{
						"POSITION":4,
						"NORMAL":5,
						"TEXCOORD_0":6
					},
					"indices":7,
					"material":1
				}
			]
		},
		{
			"name":"Plane.004",
			"primitives":[
				{
					"attributes":{
						"POSITION":8,
						"NORMAL":9,
						"TEXCOORD_0":10
					},
					"indices":11,
					"material":1
				}
			]
		},
		{
			"name":"Circle",
			"primitives":[
				{
					"attributes":{
						"POSITION":12,
						"NORMAL":13,
						"TEXCOORD_0":14
					},
					"indices":15,
					"material":2
				},
				{
					"attributes":{
						"POSITION":16,
						"NORMAL":17,
						"TEXCOORD_0":18
					},
					"indices":19,
					"material":3
				}
			]
		},
		{
			"name":"Circle.009",
			"primitives":[
				{
					"attributes":{
						"POSITION":20,
						"NORMAL":21,
						"TEXCOORD_0":22
					},
					"indices":23,
					"material":2
				},
				{
					"attributes":{
						"POSITION":24,
						"NORMAL":25,
						"TEXCOORD_0":26
					},
					"indices":27,
					"material":3
				}
			]
		},
		{
			"name":"Circle.010",
			"primitives":[
				{
					"attributes":{
						"POSITION":28,
						"NORMAL":29,
						"TEXCOORD_0":30
					},
					"indices":15,
					"material":2
				},
				{
					"attributes":{
						"POSITION":31,
						"NORMAL":32,
						"TEXCOORD_0":33
					},
					"indices":34,
					"material":3
				}
			]
		},
		{
			"name":"Circle.011",
			"primitives":[
				{
					"attributes":{
						"POSITION":35,
						"NORMAL":36,
						"TEXCOORD_0":37
					},
					"indices":38,
					"material":2
				},
				{
					"attributes":{
						"POSITION":39,
						"NORMAL":40,
						"TEXCOORD_0":41
					},
					"indices":42,
					"material":3
				}
			]
		},
		{
			"name":"Circle.012",
			"primitives":[
				{
					"attributes":{
						"POSITION":43,
						"NORMAL":44,
						"TEXCOORD_0":45
					},
					"indices":46,
					"material":2
				},
				{
					"attributes":{
						"POSITION":47,
						"NORMAL":48,
						"TEXCOORD_0":49
					},
					"indices":50,
					"material":3
				}
			]
		},
		{
			"name":"Circle.013",
			"primitives":[
				{
					"attributes":{
						"POSITION":51,
						"NORMAL":52,
						"TEXCOORD_0":53
					},
					"indices":54,
					"material":2
				},
				{
					"attributes":{
						"POSITION":55,
						"NORMAL":56,
						"TEXCOORD_0":57
					},
					"indices":58,
					"material":3
				}
			]
		},
		{
			"name":"Circle.014",
			"primitives":[
				{
					"attributes":{
						"POSITION":59,
						"NORMAL":60,
						"TEXCOORD_0":61
					},
					"indices":62,
					"material":2
				},
				{
					"attributes":{
						"POSITION":63,
						"NORMAL":64,
						"TEXCOORD_0":65
					},
					"indices":66,
					"material":3
				}
			]
		}
	],
	"textures":[
		{
			"sampler":0,
			"source":0
		},
		{
			"sampler":0,
			"source":1
		},
		{
			"sampler":0,
			"source":2
		},
		{
			"sampler":0,
			"source":3
		},
		{
			"sampler":0,
			"source":4
		},
		{
			"sampler":0,
			"source":5
		},
		{
			"sampler":0,
			"source":6
		},
		{
			"sampler":0,
			"source":7
		},
		{
			"sampler":0,
			"source":8
		},
		{
			"sampler":0,
			"source":9
		},
		{
			"sampler":0,
			"source":10
		},
		{
			"sampler":0,
			"source":11
		}
	],
	"images":[
		{
			"mimeType":"image/jpeg",
			"name":"Tiles089_4K_NormalGL",
			"uri":"textures_salle/Tiles089_4K_NormalGL.jpg"
		},
		{
			"mimeType":"image/jpeg",
			"name":"Tiles089_4K_Color",
			"uri":"textures_salle/Tiles089_4K_Color.jpg"
		},
		{
			"mimeType":"image/png",
			"name":"Tiles089_4K_Roughness",
			"uri":"textures_salle/Tiles089_4K_Roughness.png"
		},
		{
			"mimeType":"image/jpeg",
			"name":"Concrete034_2K-JPG_NormalGL",
			"uri":"textures_salle/Concrete034_2K-JPG_NormalGL.jpg"
		},
		{
			"mimeType":"image/jpeg",
			"name":"Concrete034_2K-JPG_Color",
			"uri":"textures_salle/Concrete034_2K-JPG_Color.jpg"
		},
		{
			"mimeType":"image/png",
			"name":"Concrete034_2K-JPG_Roughness",
			"uri":"textures_salle/Concrete034_2K-JPG_Roughness.png"
		},
		{
			"mimeType":"image/jpeg",
			"name":"Metal007_2K-JPG_NormalGL",
			"uri":"textures_salle/Metal007_2K-JPG_NormalGL.jpg"
		},
		{
			"mimeType":"image/jpeg",
			"name":"Metal007_2K-JPG_Color",
			"uri":"textures_salle/Metal007_2K-JPG_Color.jpg"
		},
		{
			"mimeType":"image/png",
			"name":"Metal007_2K-JPG_Metalness-Metal007_2K-JPG_Roughness",
			"uri":"textures_salle/Metal007_2K-JPG_Metalness-Metal007_2K-JPG_Roughness.png"
		},
		{
			"mimeType":"image/jpeg",
			"name":"Fabric026_1K-JPG_NormalGL",
			"uri":"textures_salle/Fabric026_1K-JPG_NormalGL.jpg"
		},
		{
			"mimeType":"image/jpeg",
			"name":"Fabric026_1K-JPG_Color",
			"uri":"textures_salle/Fabric026_1K-JPG_Color.jpg"
		},
		{
			"mimeType":"image/png",
			"name":"Fabric026_1K-JPG_Roughness",
			"uri":"textures_salle/Fabric026_1K-JPG_Roughness.png"
		}
	],
	"accessors":[
		{
			"bufferView":0,
			"componentType":5126,
			"count":210,
			"max":[
				63.462528228759766,
				0,
				38.98426818847656
			],
			"min":[
				-53.67000961303711,
				0,
				-37.07756042480469
			],
			"type":"VEC3"
		},
		{
			"bufferView":1,
			"componentType":5126,
			"count":210,
			"type":"VEC3"
		},
		{
			"bufferView":2,
			"componentType":5126,
			"count":210,
			"type":"VEC2"
		},
		{
			"bufferView":3,
			"componentType":5123,
			"count":618,
			"type":"SCALAR"
		},
		{
			"bufferView":4,
			"componentType":5126,
			"count":20,
			"max":[
				44.69279479980469,
				4.185261249542236,
				62.83740997314453
			],
			"min":[
				-80.68600463867188,
				4.1192803382873535,
				-8.27108383178711
			],
			"type":"VEC3"
		},
		{
			"bufferView":5,
			"componentType":5126,
			"count":20,
			"type":"VEC3"
		},
		{
			"bufferView":6,
			"componentType":5126,
			"count":20,
			"type":"VEC2"
		},
		{
			"bufferView":7,
			"componentType":5123,
			"count":30,
			"type":"SCALAR"
		},
		{
			"bufferView":8,
			"componentType":5126,
			"count":2579,
			"max":[
				43.75206756591797,
				9.086132049560547,
				70.52322387695312
			],
			"min":[
				-74.24778747558594,
				-0.5022950172424316,
				-7.277229309082031
			],
			"type":"VEC3"
		},
		{
			"bufferView":9,
			"componentType":5126,
			"count":2579,
			"type":"VEC3"
		},
		{
			"bufferView":10,
			"componentType":5126,
			"count":2579,
			"type":"VEC2"
		},
		{
			"bufferView":11,
			"componentType":5123,
			"count":7956,
			"type":"SCALAR"
		},
		{
			"bufferView":12,
			"componentType":5126,
			"count":5220,
			"max":[
				2.2314720153808594,
				0.30861014127731323,
				0.5489139556884766
			],
			"min":[
				-2.240677833557129,
				-1.1568306684494019,
				-1.1564884185791016
			],
			"type":"VEC3"
		},
		{
			"bufferView":13,
			"componentType":5126,
			"count":5220,
			"type":"VEC3"
		},
		{
			"bufferView":14,
			"componentType":5126,
			"count":5220,
			"type":"VEC2"
		},
		{
			"bufferView":15,
			"componentType":5123,
			"count":20688,
			"type":"SCALAR"
		},
		{
			"bufferView":16,
			"componentType":5126,
			"count":31324,
			"max":[
				2.1735267639160156,
				0.2036939263343811,
				0.5703458786010742
			],
			"min":[
				-2.1982011795043945,
				-0.33652275800704956,
				-1.081930160522461
			],
			"type":"VEC3"
		},
		{
			"bufferView":17,
			"componentType":5126,
			"count":31324,
			"type":"VEC3"
		},
		{
			"bufferView":18,
			"componentType":5126,
			"count":31324,
			"type":"VEC2"
		},
		{
			"bufferView":19,
			"componentType":5123,
			"count":52500,
			"type":"SCALAR"
		},
		{
			"bufferView":20,
			"componentType":5126,
			"count":12667,
			"max":[
				2.8515141010284424,
				0.3073602616786957,
				0.5505124926567078
			],
			"min":[
				-2.9177544116973877,
				-1.1580804586410522,
				-1.1548899412155151
			],
			"type":"VEC3"
		},
		{
			"bufferView":21,
			"componentType":5126,
			"count":12667,
			"type":"VEC3"
		},
		{
			"bufferView":22,
			"componentType":5126,
			"count":12667,
			"type":"VEC2"
		},
		{
			"bufferView":23,
			"componentType":5123,
			"count":20688,
			"type":"SCALAR"
		},
		{
			"bufferView":24,
			"componentType":5126,
			"count":33600,
			"max":[
				2.7933027744293213,
				0.20244403183460236,
				0.5719444155693054
			],
			"min":[
				-2.8752224445343018,
				-0.3377726376056671,
				-1.0803316831588745
			],
			"type":"VEC3"
		},
		{
			"bufferView":25,
			"componentType":5126,
			"count":33600,
			"type":"VEC3"
		},
		{
			"bufferView":26,
			"componentType":5126,
			"count":33600,
			"type":"VEC2"
		},
		{
			"bufferView":27,
			"componentType":5123,
			"count":52500,
			"type":"SCALAR"
		},
		{
			"bufferView":28,
			"componentType":5126,
			"count":5220,
			"max":[
				2.2314720153808594,
				0.3086100220680237,
				0.5489146113395691
			],
			"min":[
				-2.2406768798828125,
				-1.1568307876586914,
				-1.1564877033233643
			],
			"type":"VEC3"
		},
		{
			"bufferView":29,
			"componentType":5126,
			"count":5220,
			"type":"VEC3"
		},
		{
			"bufferView":30,
			"componentType":5126,
			"count":5220,
			"type":"VEC2"
		},
		{
			"bufferView":31,
			"componentType":5126,
			"count":32038,
			"max":[
				2.1735267639160156,
				0.2036939263343811,
				0.5703465342521667
			],
			"min":[
				-2.198200225830078,
				-0.33652281761169434,
				-1.0819294452667236
			],
			"type":"VEC3"
		},
		{
			"bufferView":32,
			"componentType":5126,
			"count":32038,
			"type":"VEC3"
		},
		{
			"bufferView":33,
			"componentType":5126,
			"count":32038,
			"type":"VEC2"
		},
		{
			"bufferView":34,
			"componentType":5123,
			"count":52500,
			"type":"SCALAR"
		},
		{
			"bufferView":35,
			"componentType":5126,
			"count":5220,
			"max":[
				1.1564902067184448,
				0.30861011147499084,
				2.2314722537994385
			],
			"min":[
				-0.5489159822463989,
				-1.1568306684494019,
				-2.24067759513855
			],
			"type":"VEC3"
		},
		{
			"bufferView":36,
			"componentType":5126,
			"count":5220,
			"type":"VEC3"
		},
		{
			"bufferView":37,
			"componentType":5126,
			"count":5220,
			"type":"VEC2"
		},
		{
			"bufferView":38,
			"componentType":5123,
			"count":20688,
			"type":"SCALAR"
		},
		{
			"bufferView":39,
			"componentType":5126,
			"count":32704,
			"max":[
				1.0819281339645386,
				0.20369401574134827,
				2.1735270023345947
			],
			"min":[
				-0.5703469514846802,
				-0.3365227282047272,
				-2.1982009410858154
			],
			"type":"VEC3"
		},
		{
			"bufferView":40,
			"componentType":5126,
			"count":32704,
			"type":"VEC3"
		},
		{
			"bufferView":41,
			"componentType":5126,
			"count":32704,
			"type":"VEC2"
		},
		{
			"bufferView":42,
			"componentType":5123,
			"count":52500,
			"type":"SCALAR"
		},
		{
			"bufferView":43,
			"componentType":5126,
			"count":12671,
			"max":[
				1.1249735355377197,
				0.30772724747657776,
				1.701765537261963
			],
			"min":[
				-0.5271031856536865,
				-1.157713532447815,
				-1.6945185661315918
			],
			"type":"VEC3"
		},
		{
			"bufferView":44,
			"componentType":5126,
			"count":12671,
			"type":"VEC3"
		},
		{
			"bufferView":45,
			"componentType":5126,
			"count":12671,
			"type":"VEC2"
		},
		{
			"bufferView":46,
			"componentType":5123,
			"count":20688,
			"type":"SCALAR"
		},
		{
			"bufferView":47,
			"componentType":5126,
			"count":33600,
			"max":[
				1.0507547855377197,
				0.202811136841774,
				1.6446003913879395
			],
			"min":[
				-0.5633885860443115,
				-0.33740559220314026,
				-1.6517138481140137
			],
			"type":"VEC3"
		},
		{
			"bufferView":48,
			"componentType":5126,
			"count":33600,
			"type":"VEC3"
		},
		{
			"bufferView":49,
			"componentType":5126,
			"count":33600,
			"type":"VEC2"
		},
		{
			"bufferView":50,
			"componentType":5123,
			"count":52500,
			"type":"SCALAR"
		},
		{
			"bufferView":51,
			"componentType":5126,
			"count":5220,
			"max":[
				2.2406768798828125,
				0.30861011147499084,
				1.1564900875091553
			],
			"min":[
				-2.2314720153808594,
				-1.1568307876586914,
				-0.5489161014556885
			],
			"type":"VEC3"
		},
		{
			"bufferView":52,
			"componentType":5126,
			"count":5220,
			"type":"VEC3"
		},
		{
			"bufferView":53,
			"componentType":5126,
			"count":5220,
			"type":"VEC2"
		},
		{
			"bufferView":54,
			"componentType":5123,
			"count":20688,
			"type":"SCALAR"
		},
		{
			"bufferView":55,
			"componentType":5126,
			"count":32822,
			"max":[
				2.198200225830078,
				0.20369377732276917,
				1.081928014755249
			],
			"min":[
				-2.1735267639160156,
				-0.3365228474140167,
				-0.5703470706939697
			],
			"type":"VEC3"
		},
		{
			"bufferView":56,
			"componentType":5126,
			"count":32822,
			"type":"VEC3"
		},
		{
			"bufferView":57,
			"componentType":5126,
			"count":32822,
			"type":"VEC2"
		},
		{
			"bufferView":58,
			"componentType":5123,
			"count":52500,
			"type":"SCALAR"
		},
		{
			"bufferView":59,
			"componentType":5126,
			"count":5220,
			"max":[
				2.2230212688446045,
				0.3086100220680237,
				1.1183650493621826
			],
			"min":[
				-2.250229835510254,
				-1.1568307876586914,
				-0.5191041827201843
			],
			"type":"VEC3"
		},
		{
			"bufferView":60,
			"componentType":5126,
			"count":5220,
			"type":"VEC3"
		},
		{
			"bufferView":61,
			"componentType":5126,
			"count":5220,
			"type":"VEC2"
		},
		{
			"bufferView":62,
			"componentType":5123,
			"count":20688,
			"type":"SCALAR"
		},
		{
			"bufferView":63,
			"componentType":5126,
			"count":31626,
			"max":[
				2.1808412075042725,
				0.2036939263343811,
				1.0441091060638428
			],
			"min":[
				-2.1919593811035156,
				-0.33652281761169434,
				-0.5538350939750671
			],
			"type":"VEC3"
		},
		{
			"bufferView":64,
			"componentType":5126,
			"count":31626,
			"type":"VEC3"
		},
		{
			"bufferView":65,
			"componentType":5126,
			"count":31626,
			"type":"VEC2"
		},
		{
			"bufferView":66,
			"componentType":5123,
			"count":52500,
			"type":"SCALAR"
		}
	],
	"bufferViews":[
		{
			"buffer":0,
			"byteLength":2520,
			"byteOffset":0,
			"target":34962
		},
		{
			"buffer":0,
			"byteLength":2520,
			"byteOffset":2520,
			"target":34962
		},
		{
			"buffer":0,
			"byteLength":1680,
			"byteOffset":5040,
			"target":34962
		},
		{
			"buffer":0,
			"byteLength":1236,
			"byteOffset":6720,
			"target":34963
		},
		{
			"buffer":0,
			"byteLength":240,
			"byteOffset":7956,
			"target":34962
		},
		{
			"buffer":0,
			"byteLength":240,
			"byteOffset":8196,
			"target":34962
		},
		{
			"buffer":0,
			"byteLength":160,
			"byteOffset":8436,
			"target":34962
		},
		{
			"buffer":0,
			"byteLength":60,
			"byteOffset":8596,
			"target":34963
		},
		{
			"buffer":0,
			"byteLength":30948,
			"byteOffset":8656,
			"target":34962
		},
		{
			"buffer":0,
			"byteLength":30948,
			"byteOffset":39604,
			"target":34962
		},
		{
			"buffer":0,
			"byteLength":20632,
			"byteOffset":70552,
			"target":34962
		},
		{
			"buffer":0,
			"byteLength":15912,
			"byteOffset":91184,
			"target":34963
		},
		{
			"buffer":0,
			"byteLength":62640,
			"byteOffset":107096,
			"target":34962
		},
		{
			"buffer":0,
			"byteLength":62640,
			"byteOffset":169736,
			"target":34962
		},
		{
			"buffer":0,
			"byteLength":41760,
			"byteOffset":232376,
			"target":34962
		},
		{
			"buffer":0,
			"byteLength":41376,
			"byteOffset":274136,
			"target":34963
		},
		{
			"buffer":0,
			"byteLength":375888,
			"byteOffset":315512,
			"target":34962
		},
		{
			"buffer":0,
			"byteLength":375888,
			"byteOffset":691400,
			"target":34962
		},
		{
			"buffer":0,
			"byteLength":250592,
			"byteOffset":1067288,
			"target":34962
		},
		{
			"buffer":0,
			"byteLength":105000,
			"byteOffset":1317880,
			"target":34963
		},
		{
			"buffer":0,
			"byteLength":152004,
			"byteOffset":1422880,
			"target":34962
		},
		{
			"buffer":0,
			"byteLength":152004,
			"byteOffset":1574884,
			"target":34962
		},
		{
			"buffer":0,
			"byteLength":101336,
			"byteOffset":1726888,
			"target":34962
		},
		{
			"buffer":0,
			"byteLength":41376,
			"byteOffset":1828224,
			"target":34963
		},
		{
			"buffer":0,
			"byteLength":403200,
			"byteOffset":1869600,
			"target":34962
		},
		{
			"buffer":0,
			"byteLength":403200,
			"byteOffset":2272800,
			"target":34962
		},
		{
			"buffer":0,
			"byteLength":268800,
			"byteOffset":2676000,
			"target":34962
		},
		{
			"buffer":0,
			"byteLength":105000,
			"byteOffset":2944800,
			"target":34963
		},
		{
			"buffer":0,
			"byteLength":62640,
			"byteOffset":3049800,
			"target":34962
		},
		{
			"buffer":0,
			"byteLength":62640,
			"byteOffset":3112440,
			"target":34962
		},
		{
			"buffer":0,
			"byteLength":41760,
			"byteOffset":3175080,
			"target":34962
		},
		{
			"buffer":0,
			"byteLength":384456,
			"byteOffset":3216840,
			"target":34962
		},
		{
			"buffer":0,
			"byteLength":384456,
			"byteOffset":3601296,
			"target":34962
		},
		{
			"buffer":0,
			"byteLength":256304,
			"byteOffset":3985752,
			"target":34962
		},
		{
			"buffer":0,
			"byteLength":105000,
			"byteOffset":4242056,
			"target":34963
		},
		{
			"buffer":0,
			"byteLength":62640,
			"byteOffset":4347056,
			"target":34962
		},
		{
			"buffer":0,
			"byteLength":62640,
			"byteOffset":4409696,
			"target":34962
		},
		{
			"buffer":0,
			"byteLength":41760,
			"byteOffset":4472336,
			"target":34962
		},
		{
			"buffer":0,
			"byteLength":41376,
			"byteOffset":4514096,
			"target":34963
		},
		{
			"buffer":0,
			"byteLength":392448,
			"byteOffset":4555472,
			"target":34962
		},
		{
			"buffer":0,
			"byteLength":392448,
			"byteOffset":4947920,
			"target":34962
		},
		{
			"buffer":0,
			"byteLength":261632,
			"byteOffset":5340368,
			"target":34962
		},
		{
			"buffer":0,
			"byteLength":105000,
			"byteOffset":5602000,
			"target":34963
		},
		{
			"buffer":0,
			"byteLength":152052,
			"byteOffset":5707000,
			"target":34962
		},
		{
			"buffer":0,
			"byteLength":152052,
			"byteOffset":5859052,
			"target":34962
		},
		{
			"buffer":0,
			"byteLength":101368,
			"byteOffset":6011104,
			"target":34962
		},
		{
			"buffer":0,
			"byteLength":41376,
			"byteOffset":6112472,
			"target":34963
		},
		{
			"buffer":0,
			"byteLength":403200,
			"byteOffset":6153848,
			"target":34962
		},
		{
			"buffer":0,
			"byteLength":403200,
			"byteOffset":6557048,
			"target":34962
		},
		{
			"buffer":0,
			"byteLength":268800,
			"byteOffset":6960248,
			"target":34962
		},
		{
			"buffer":0,
			"byteLength":105000,
			"byteOffset":7229048,
			"target":34963
		},
		{
			"buffer":0,
			"byteLength":62640,
			"byteOffset":7334048,
			"target":34962
		},
		{
			"buffer":0,
			"byteLength":62640,
			"byteOffset":7396688,
			"target":34962
		},
		{
			"buffer":0,
			"byteLength":41760,
			"byteOffset":7459328,
			"target":34962
		},
		{
			"buffer":0,
			"byteLength":41376,
			"byteOffset":7501088,
			"target":34963
		},
		{
			"buffer":0,
			"byteLength":393864,
			"byteOffset":7542464,
			"target":34962
		},
		{
			"buffer":0,
			"byteLength":393864,
			"byteOffset":7936328,
			"target":34962
		},
		{
			"buffer":0,
			"byteLength":262576,
			"byteOffset":8330192,
			"target":34962
		},
		{
			"buffer":0,
			"byteLength":105000,
			"byteOffset":8592768,
			"target":34963
		},
		{
			"buffer":0,
			"byteLength":62640,
			"byteOffset":8697768,
			"target":34962
		},
		{
			"buffer":0,
			"byteLength":62640,
			"byteOffset":8760408,
			"target":34962
		},
		{
			"buffer":0,
			"byteLength":41760,
			"byteOffset":8823048,
			"target":34962
		},
		{
			"buffer":0,
			"byteLength":41376,
			"byteOffset":8864808,
			"target":34963
		},
		{
			"buffer":0,
			"byteLength":379512,
			"byteOffset":8906184,
			"target":34962
		},
		{
			"buffer":0,
			"byteLength":379512,
			"byteOffset":9285696,
			"target":34962
		},
		{
			"buffer":0,
			"byteLength":253008,
			"byteOffset":9665208,
			"target":34962
		},
		{
			"buffer":0,
			"byteLength":105000,
			"byteOffset":9918216,
			"target":34963
		}
	],
	"samplers":[
		{
			"magFilter":9729,
			"minFilter":9987
		}
	],
	"buffers":[
		{
			"byteLength":10023216,
			"uri":"sallev2.bin"
		}
	]
}
