{
	"asset":{
		"generator":"Khronos glTF Blender I/O v4.0.44",
		"version":"2.0"
	},
	"extensionsUsed":[
		"KHR_materials_emissive_strength"
	],
	"scene":0,
	"scenes":[
		{
			"name":"Scene",
			"nodes":[
				0,
				1
			]
		}
	],
	"nodes":[
		{
			"mesh":0,
			"name":"light sol",
			"scale":[
				0.25960707664489746,
				0.4700566530227661,
				0.25960707664489746
			],
			"translation":[
				-3.0980098247528076,
				0.21083027124404907,
				-5.253965854644775
			]
		},
		{
			"mesh":1,
			"name":"light plafond",
			"rotation":[
				0.3854454457759857,
				0,
				0,
				0.9227306246757507
			],
			"translation":[
				-2.1532156467437744,
				4.083747386932373,
				-5.219749450683594
			]
		}
	],
	"materials":[
		{
			"doubleSided":true,
			"name":"gold",
			"normalTexture":{
				"index":0
			},
			"pbrMetallicRoughness":{
				"baseColorTexture":{
					"index":1
				},
				"metallicRoughnessTexture":{
					"index":2
				}
			}
		},
		{
			"doubleSided":true,
			"emissiveFactor":[
				1,
				1,
				1
			],
			"extensions":{
				"KHR_materials_emissive_strength":{
					"emissiveStrength":39.69999694824219
				}
			},
			"name":"LIGHT",
			"pbrMetallicRoughness":{
				"baseColorFactor":[
					0.800000011920929,
					0.800000011920929,
					0.800000011920929,
					1
				],
				"metallicFactor":0,
				"roughnessFactor":0.5
			}
		}
	],
	"meshes":[
		{
			"name":"Circle.019",
			"primitives":[
				{
					"attributes":{
						"POSITION":0,
						"NORMAL":1,
						"TEXCOORD_0":2
					},
					"indices":3,
					"material":0
				},
				{
					"attributes":{
						"POSITION":4,
						"NORMAL":5,
						"TEXCOORD_0":6
					},
					"indices":7,
					"material":1
				}
			]
		},
		{
			"name":"Plane.007",
			"primitives":[
				{
					"attributes":{
						"POSITION":8,
						"NORMAL":9,
						"TEXCOORD_0":10
					},
					"indices":7,
					"material":1
				},
				{
					"attributes":{
						"POSITION":11,
						"NORMAL":12,
						"TEXCOORD_0":13
					},
					"indices":14,
					"material":0
				}
			]
		}
	],
	"textures":[
		{
			"sampler":0,
			"source":0
		},
		{
			"sampler":0,
			"source":1
		},
		{
			"sampler":0,
			"source":2
		}
	],
	"images":[
		{
			"mimeType":"image/jpeg",
			"name":"Metal007_2K-JPG_NormalGL",
			"uri":"textures_ligths/Metal007_2K-JPG_NormalGL.jpg"
		},
		{
			"mimeType":"image/jpeg",
			"name":"Metal007_2K-JPG_Color",
			"uri":"textures_ligths/Metal007_2K-JPG_Color.jpg"
		},
		{
			"mimeType":"image/png",
			"name":"Metal007_2K-JPG_Metalness-Metal007_2K-JPG_Roughness",
			"uri":"textures_ligths/Metal007_2K-JPG_Metalness-Metal007_2K-JPG_Roughness.png"
		}
	],
	"accessors":[
		{
			"bufferView":0,
			"componentType":5126,
			"count":284,
			"max":[
				7.491294860839844,
				0.8671261668205261,
				0.32419586181640625
			],
			"min":[
				-0.21265530586242676,
				-0.6516289114952087,
				-0.09476055204868317
			],
			"type":"VEC3"
		},
		{
			"bufferView":1,
			"componentType":5126,
			"count":284,
			"type":"VEC3"
		},
		{
			"bufferView":2,
			"componentType":5126,
			"count":284,
			"type":"VEC2"
		},
		{
			"bufferView":3,
			"componentType":5123,
			"count":714,
			"type":"SCALAR"
		},
		{
			"bufferView":4,
			"componentType":5126,
			"count":4,
			"max":[
				7.3523945808410645,
				0.8010733127593994,
				0.18342962861061096
			],
			"min":[
				-0.07375550270080566,
				0.7150253057479858,
				0.025751672685146332
			],
			"type":"VEC3"
		},
		{
			"bufferView":5,
			"componentType":5126,
			"count":4,
			"type":"VEC3"
		},
		{
			"bufferView":6,
			"componentType":5126,
			"count":4,
			"type":"VEC2"
		},
		{
			"bufferView":7,
			"componentType":5123,
			"count":6,
			"type":"SCALAR"
		},
		{
			"bufferView":8,
			"componentType":5126,
			"count":4,
			"max":[
				0.9639396667480469,
				-0.010050773620605469,
				0.028773069381713867
			],
			"min":[
				-0.9639415740966797,
				-0.010050773620605469,
				-0.02877354621887207
			],
			"type":"VEC3"
		},
		{
			"bufferView":9,
			"componentType":5126,
			"count":4,
			"type":"VEC3"
		},
		{
			"bufferView":10,
			"componentType":5126,
			"count":4,
			"type":"VEC2"
		},
		{
			"bufferView":11,
			"componentType":5126,
			"count":92,
			"max":[
				0.9999990463256836,
				0.022515296936035156,
				0.06483244895935059
			],
			"min":[
				-1.0000009536743164,
				-0.01806926727294922,
				-0.06483292579650879
			],
			"type":"VEC3"
		},
		{
			"bufferView":12,
			"componentType":5126,
			"count":92,
			"type":"VEC3"
		},
		{
			"bufferView":13,
			"componentType":5126,
			"count":92,
			"type":"VEC2"
		},
		{
			"bufferView":14,
			"componentType":5123,
			"count":150,
			"type":"SCALAR"
		}
	],
	"bufferViews":[
		{
			"buffer":0,
			"byteLength":3408,
			"byteOffset":0,
			"target":34962
		},
		{
			"buffer":0,
			"byteLength":3408,
			"byteOffset":3408,
			"target":34962
		},
		{
			"buffer":0,
			"byteLength":2272,
			"byteOffset":6816,
			"target":34962
		},
		{
			"buffer":0,
			"byteLength":1428,
			"byteOffset":9088,
			"target":34963
		},
		{
			"buffer":0,
			"byteLength":48,
			"byteOffset":10516,
			"target":34962
		},
		{
			"buffer":0,
			"byteLength":48,
			"byteOffset":10564,
			"target":34962
		},
		{
			"buffer":0,
			"byteLength":32,
			"byteOffset":10612,
			"target":34962
		},
		{
			"buffer":0,
			"byteLength":12,
			"byteOffset":10644,
			"target":34963
		},
		{
			"buffer":0,
			"byteLength":48,
			"byteOffset":10656,
			"target":34962
		},
		{
			"buffer":0,
			"byteLength":48,
			"byteOffset":10704,
			"target":34962
		},
		{
			"buffer":0,
			"byteLength":32,
			"byteOffset":10752,
			"target":34962
		},
		{
			"buffer":0,
			"byteLength":1104,
			"byteOffset":10784,
			"target":34962
		},
		{
			"buffer":0,
			"byteLength":1104,
			"byteOffset":11888,
			"target":34962
		},
		{
			"buffer":0,
			"byteLength":736,
			"byteOffset":12992,
			"target":34962
		},
		{
			"buffer":0,
			"byteLength":300,
			"byteOffset":13728,
			"target":34963
		}
	],
	"samplers":[
		{
			"magFilter":9729,
			"minFilter":9987
		}
	],
	"buffers":[
		{
			"byteLength":14028,
			"uri":"sallev2.bin"
		}
	]
}
